<?xml version="1.0" standalone="no"?>
<!DOCTYPE svg PUBLIC "-//W3C//DTD SVG 1.1//EN" "http://www.w3.org/Graphics/SVG/1.1/DTD/svg11.dtd" >
<svg xmlns="http://www.w3.org/2000/svg">
<metadata>
This is a custom SVG webfont generated by Font Squirrel.
Copyright   :  1987 2001 Adobe Systems Incorporated All rights reserved
Designer    : John Scheppler
Foundry     : Adobe Systems Incorporated
Foundry URL : httpwwwadobecomtype
</metadata>
<defs>
<font id="OratorStdMedium" horiz-adv-x="1228" >
<font-face units-per-em="2048" ascent="1366" descent="-682" />
<missing-glyph horiz-adv-x="500" />
<glyph unicode=" " />
<glyph unicode="!" d="M510 1366h209l-41 -942h-131zM520 0v303h189v-303h-189z" />
<glyph unicode="&#x22;" d="M360 1157v227h189v-227l-55 -276h-78zM682 1157v227h188v-227l-55 -276h-78z" />
<glyph unicode="#" d="M63 489l17 91h274l58 321h-275l17 90h274l119 658h90l-332 -1846h-92l125 686h-275zM582 -197l338 1846h90l-119 -658h276l-18 -90h-275l-57 -321h275l-17 -91h-274l-127 -686h-92z" />
<glyph unicode="$" d="M238 354l112 82q33 -47 51.5 -70.5t56.5 -51t79 -33.5v370q-113 29 -185.5 103.5t-72.5 185.5q0 104 75.5 180t182.5 94v170h143v-170q160 -14 287 -178l-101 -88q-113 127 -186 137v-335q135 -20 223 -99.5t88 -208.5q0 -123 -93 -205.5t-218 -84.5v-170h-143v170 q-90 4 -168 60t-131 142zM422 934q0 -49 31.5 -89t83.5 -57v297q-49 -12 -82 -56t-33 -95zM680 281q70 4 119 49t49 114q0 66 -50 111t-118 55v-329z" />
<glyph unicode="%" d="M168 47l676 1188q-39 -16 -92 -16q-55 0 -109 18q18 -53 19 -109q0 -109 -59.5 -183.5t-164.5 -74.5q-106 0 -165.5 75t-59.5 183q0 106 59.5 181t165.5 75q43 0 137 -28q104 -35 168 -35q150 0 244 61l74 -41l-770 -1359zM336 1128q0 -61 23.5 -108t78.5 -47q53 0 77 47 t24 108q0 59 -23.5 106.5t-77.5 47.5q-55 0 -78.5 -47.5t-23.5 -106.5zM561 237.5q0 106.5 59.5 181.5t165.5 75q104 0 164 -75t60 -181.5t-59.5 -181t-164.5 -74.5q-106 0 -165.5 74.5t-59.5 181zM684 237.5q0 -61.5 23.5 -107.5t78.5 -46q53 0 77 46t24 107.5t-23.5 107.5 t-77.5 46q-55 0 -78.5 -46t-23.5 -107.5z" />
<glyph unicode="&#x26;" d="M238 293q0 94 50 158.5t144 130.5l-31 41q-53 70 -76.5 123t-23.5 126q0 125 72.5 202t193.5 77q119 0 195 -81t76 -198q0 -96 -50.5 -166.5t-173.5 -152.5l201 -272q49 74 59 200l136 -26q-20 -170 -109 -291l84 -117l-104 -76l-74 101q-117 -90 -246 -90 q-135 0 -229 88t-94 223zM381 295q0 -82 53 -133t135 -51q92 0 164 67l-225 305q-66 -45 -96.5 -85t-30.5 -103zM430 881q0 -88 111 -228l43 31q41 29 63.5 49.5t42 56t19.5 76.5q0 70 -39 113t-109 43q-61 0 -96 -40t-35 -101z" />
<glyph unicode="'" d="M520 1157v227h189v-227l-56 -276h-78z" />
<glyph unicode="(" d="M426 625q0 215 81 422.5t234 336.5l82 -79q-254 -242 -254 -680.5t254 -679.5l-82 -82q-154 131 -234.5 339t-80.5 423z" />
<glyph unicode=")" d="M406 -55q254 242 253.5 680t-253.5 680l81 79q154 -129 235 -336.5t81 -422.5t-81 -423t-235 -339z" />
<glyph unicode="*" d="M293 975v180l205 -20l-129 151l139 98l106 -192l107 192l139 -98l-129 -151l205 20v-180l-205 18l129 -149l-139 -101l-107 195l-106 -195l-139 101l129 149zM557 1065q0 -25 17.5 -41t40 -16t40 16t17.5 41q0 23 -17.5 40t-40 17t-40 -17t-17.5 -40z" />
<glyph unicode="+" d="M70 692v90h499v500h90v-500h500v-90h-500v-499h-90v499h-499z" />
<glyph unicode="," d="M457 -8q86 55 86 186v125h188v-92q0 -100 -64.5 -190.5t-162.5 -141.5z" />
<glyph unicode="-" d="M387 469v129h455v-129h-455z" />
<glyph unicode="." d="M520 0v303h189v-303h-189z" />
<glyph unicode="/" d="M264 -55l606 1585h95l-607 -1585h-94z" />
<glyph unicode="0" d="M233.5 515q2.5 60 -0.5 114v53q0 297 25 405q55 264 289 293q33 4 67 4q78 0 140.5 -25.5t102.5 -60t68.5 -97t42 -108.5t21.5 -123t8 -112t-1 -103.5t-1 -72.5v-49q-2 -51 0 -110.5t-6 -122t-20.5 -123t-41 -113.5t-67.5 -94t-102.5 -64.5t-143 -23.5t-143 22.5 t-102.5 62t-68 92t-41 112t-20.5 122t-6 122.5zM377 682q0 -158 12 -265.5t30.5 -168t52.5 -92t63.5 -38.5t78.5 -7q66 0 105 18t71.5 76.5t47 174.5t14.5 302q0 156 -11.5 262.5t-29.5 168t-51 93t-64.5 40.5t-81.5 9q-70 0 -116.5 -32.5t-70.5 -71.5t-36 -124t-13 -133 t-1 -157v-55z" />
<glyph unicode="1" d="M227 0v123h344v1077l-249 -96l-43 125l430 164v-1270h292v-123h-774z" />
<glyph unicode="2" d="M233 0v123l506 653q43 55 60.5 82t36 75t18.5 99q0 98 -60.5 160.5t-158.5 62.5q-115 0 -181.5 -76.5t-82.5 -197.5l-135 18q27 178 126 281.5t273 103.5q164 0 263 -93t99 -255q0 -150 -143 -334l-446 -579h587v-123h-762z" />
<glyph unicode="3" d="M227 1243v123h758v-123l-379 -387q168 4 281.5 -90t113.5 -258q0 -264 -247 -416q-178 -111 -508 -110v129q279 0 393 65q96 51 157.5 138t61.5 190q0 121 -88 175t-217 54q-18 0 -160 -16v110l404 416h-570z" />
<glyph unicode="4" d="M225 342l203 1051l137 -37l-176 -891h371v694h137v-694h109v-123h-109v-342h-137v342h-535z" />
<glyph unicode="5" d="M238 -18v129q289 0 399 59q94 51 152.5 140t58.5 194q0 109 -66.5 171t-175.5 62q-92 0 -227 -71h-98v700h700v-123h-563v-420q119 43 203 43q156 0 263 -98t107 -264q0 -131 -64.5 -239.5t-176.5 -180.5q-162 -102 -512 -102z" />
<glyph unicode="6" d="M231 668q0 717 408 716q174 0 303 -118l-78 -113q-117 102 -219 102q-59 0 -105 -22.5t-74 -67.5t-46.5 -89t-27.5 -109.5t-12 -106.5t-5 -102q131 111 272 110q180 0 266 -125t86 -313q0 -193 -102 -320.5t-291 -127.5q-100 0 -174 48t-110.5 115.5t-58 170t-27 178.5 t-5.5 174zM375 606q0 -154 19.5 -257t56 -152.5t74.5 -67.5t91 -18q119 0 179.5 89t60.5 224q0 315 -229 315q-111 0 -252 -133z" />
<glyph unicode="7" d="M295 1243v123h762l-621 -1393l-123 56l545 1214h-563z" />
<glyph unicode="8" d="M223 348q0 131 69.5 211t205.5 148q-109 68 -169.5 144.5t-60.5 184.5q0 150 98.5 249t248 99t248 -99t98.5 -249q0 -109 -59.5 -185.5t-168.5 -143.5q133 -68 203 -148t70 -211q0 -164 -113 -265t-278.5 -101t-278.5 101t-113 265zM367 342q0 -104 71.5 -167.5 t176 -63.5t176 63.5t71.5 167.5q0 33 -6 61.5t-23.5 55t-28.5 43t-43 39t-43 32t-52 33.5l-52 31l-51 -31q-41 -25 -52 -34t-43 -31.5t-43 -39t-28.5 -43t-23.5 -55t-6 -61.5zM412 1036q0 -25 5 -48t11 -39.5t22.5 -37t24.5 -30t32.5 -28.5t32 -24.5t38.5 -25.5l36 -25 l37 25q31 20 38 25.5t31.5 24.5t33 28.5t25 30t22.5 37t11 40t5 47.5q0 94 -54 156.5t-148.5 62.5t-148.5 -62.5t-54 -156.5z" />
<glyph unicode="9" d="M231 936q0 193 101.5 320.5t290.5 127.5q86 0 150.5 -30.5t104.5 -90t65.5 -123t36.5 -150.5t14 -149.5t3 -142.5q0 -717 -407 -716q-174 0 -303 118l78 113q113 -102 221 -102q59 0 105 22.5t74 67.5t45 89t26.5 110.5t12.5 106.5t5 101q-127 -111 -270 -110 q-180 0 -266.5 125t-86.5 313zM375 940q0 -313 229 -313q111 0 250 131q0 152 -18.5 254t-54.5 153.5t-74.5 70.5t-92.5 19q-119 0 -179 -90t-60 -225z" />
<glyph unicode=":" d="M520 0v303h189v-303h-189zM520 582v303h189v-303h-189z" />
<glyph unicode=";" d="M457 -8q86 55 86 186v125h188v-92q0 -100 -64.5 -190.5t-162.5 -141.5zM543 582v303h188v-303h-188z" />
<glyph unicode="&#x3c;" d="M201 737l776 738l51 -66l-696 -672l696 -671l-51 -66z" />
<glyph unicode="=" d="M70 555v90h1089v-90h-1089zM70 829v91h1089v-91h-1089z" />
<glyph unicode="&#x3e;" d="M201 66l696 671l-696 672l51 66l776 -738l-776 -737z" />
<glyph unicode="?" d="M242 1008q74 377 391 376q160 0 257 -94t97 -252q0 -109 -51 -186.5t-152 -163.5q-70 -61 -88 -93t-18 -116v-28h-141v34q0 111 21.5 158t107.5 121q63 55 88.5 78.5t57.5 79t32 112.5q0 98 -54.5 159.5t-152.5 61.5q-113 0 -176.5 -79.5t-83.5 -202.5zM512 0v303h188 v-303h-188z" />
<glyph unicode="@" d="M39 569q0 143 40 284.5t114.5 262.5t197.5 194.5t275 73.5q86 0 174 -32.5t169 -98t131 -179t50 -259.5q0 -104 -28.5 -204.5t-102.5 -181.5t-180 -81q-59 0 -91 17.5t-79 66.5q-53 -45 -91 -64.5t-98 -19.5q-82 0 -134 51.5t-52 132.5q0 80 30.5 171.5t79.5 154.5 q51 66 144.5 96.5t288.5 24.5l-52 -309q-14 -92 -14 -111q0 -82 70 -82q45 0 79.5 36t52 91t26 106.5t8.5 94.5q0 203 -109 326.5t-285 123.5q-190 0 -330.5 -186t-140.5 -504q0 -211 108.5 -332.5t293.5 -121.5q201 0 444 157l49 -129q-240 -158 -504 -157 q-215 0 -374.5 150t-159.5 437zM477 543q0 -66 53 -66q117 0 179 320l10 53q-4 0 -29.5 -5t-36 -8t-29 -9.5t-31.5 -15.5t-24 -21q-37 -45 -64.5 -117t-27.5 -131z" />
<glyph unicode="A" d="M186 10l346 1356h164l346 -1356l-135 -37l-106 449h-373l-106 -449zM461 545h307l-152 639h-4z" />
<glyph unicode="B" d="M250 0v123h110v1120h-110v123h418q121 0 212 -94t91 -250q0 -184 -146 -264q209 -92 209 -348q0 -203 -96 -306.5t-248 -103.5h-440zM498 123h186q96 0 151.5 72.5t55.5 216.5q0 270 -244 270h-149v-559zM498 805h123q207 0 206 217q0 123 -60 172t-189 49h-80v-438z" />
<glyph unicode="C" d="M233 682q0 94 8.5 179t34 184.5t68.5 171t120 119.5t179 48q213 0 334 -221l-117 -69q-82 162 -217 161q-266 0 -266 -573q0 -571 266 -571q137 0 242 172l112 -78q-137 -223 -354 -223q-102 0 -179 48t-120 119.5t-68.5 171t-34 183.5t-8.5 178z" />
<glyph unicode="D" d="M244 0v123h110v1120h-110v123h360q111 0 185.5 -28.5t134 -101.5t88 -210t28.5 -344q0 -80 -2 -134t-11 -132t-25.5 -130.5t-48 -110.5t-77 -93t-114 -58.5t-154.5 -23.5h-364zM492 123h112q57 0 95 8t79 40t64.5 91.5t39 163.5t15.5 256q0 150 -16.5 257.5t-40 165.5 t-61.5 90t-68.5 40t-73.5 8h-145v-1120z" />
<glyph unicode="E" d="M322 0v1366h665v-123h-528v-450h436v-123h-436v-547h528v-123h-665z" />
<glyph unicode="F" d="M360 0v1366h672v-123h-534v-450h448v-123h-448v-670h-138z" />
<glyph unicode="G" d="M244 680q0 113 15 220.5t55 224t124 188t205 71.5q209 0 342 -219l-121 -73q-92 164 -229 163q-80 0 -134.5 -64.5t-76 -168.5t-29.5 -184t-8 -162q0 -565 272 -565q100 0 179 63v412h-256v123h393v-609q-145 -119 -318 -118q-100 0 -177 47t-121 118.5t-70.5 170 t-35.5 184.5t-9 178z" />
<glyph unicode="H" d="M266 0v1366h137v-573h422v573h138v-1366h-138v670h-422v-670h-137z" />
<glyph unicode="I" d="M360 0v123h185v1120h-185v123h508v-123h-186v-1120h186v-123h-508z" />
<glyph unicode="J" d="M223 369v127h137v-138q0 -98 48.5 -172.5t154.5 -74.5q90 0 143.5 73.5t53.5 192.5v989h137v-1004q0 -184 -100.5 -282t-243.5 -98q-137 0 -233.5 99.5t-96.5 287.5z" />
<glyph unicode="K" d="M332 0v1366h137v-563h37l381 590l110 -70l-374 -578l448 -702l-115 -70l-440 707h-47v-680h-137z" />
<glyph unicode="L" d="M346 0v1366h137v-1243h561v-123h-698z" />
<glyph unicode="M" d="M207 0l41 1366h170l196 -580l197 580h172l41 -1366h-145l-27 1139h-4l-234 -686l-233 686h-4l-27 -1139h-143z" />
<glyph unicode="N" d="M258 0v1366h172l406 -1149l4 4l-6 305v840h137v-1366h-172l-406 1151l-4 -4l6 -309v-838h-137z" />
<glyph unicode="O" d="M236 611v73q0 74 3 132t13 148.5t36.5 157t65.5 130t105.5 98t154.5 34.5q80 0 142.5 -31.5t101.5 -73.5t66.5 -114.5t41 -127t19.5 -138.5t7 -117.5t1 -97.5q0 -61 -1 -95t-7 -118t-19.5 -138t-41 -127t-66.5 -117t-101.5 -75.5t-142.5 -31.5q-63 0 -115.5 19t-89 47 t-66.5 78t-47 89t-30.5 105.5t-18.5 101.5t-8 103.5t-3 85.5zM379 684q0 -297 49 -435t186 -138q43 0 78 13t59.5 44t42 60.5t27.5 81.5t16.5 87t9.5 98.5t3 94.5v94v18q0 86 -1 132.5t-7 123t-21.5 119.5t-40 89t-66.5 67.5t-100 21.5q-35 0 -64.5 -9t-52 -31.5t-41 -43 t-29.5 -60.5t-20.5 -64.5t-14.5 -75.5t-8 -74t-4 -78t-1 -68v-67z" />
<glyph unicode="P" d="M332 0v1366h297q182 0 279.5 -94t97.5 -268q0 -184 -93.5 -290t-238.5 -106h-205v-608h-137zM469 731l193 2q96 2 148 71.5t52 199.5q0 240 -235 239h-158v-512z" />
<glyph unicode="Q" d="M236 682q0 344 105 523t273 179q160 0 269.5 -171t109.5 -531q0 -334 -102 -516l100 -119l-104 -86l-80 96q-86 -76 -193 -75q-160 0 -269 172t-109 528zM379 672q0 -76 7 -153t27.5 -179t69.5 -165.5t121 -63.5q74 0 119 45l-174 206l104 89l144 -170q53 162 53 397 q0 84 -6 159.5t-26.5 182t-74 171t-131.5 64.5q-233 1 -233 -583z" />
<glyph unicode="R" d="M332 0v1366h368q115 0 210.5 -96t95.5 -266q0 -135 -58.5 -240t-177.5 -146l283 -585l-123 -60l-307 635h-154v-608h-137zM469 731h201q92 0 142 68.5t50 204.5q0 129 -57 184t-168 55h-168v-512z" />
<glyph unicode="S" d="M268 358l138 19q16 -133 59 -199.5t158 -66.5q92 0 147 62.5t55 180.5q0 43 -7 79t-29.5 67.5t-37 51t-56.5 47.5t-58 38t-70 41q-74 43 -110.5 68.5t-77.5 68.5t-57.5 95.5t-16.5 125.5q0 143 88 245.5t230 102.5q258 0 321 -309l-133 -20q-45 201 -188 200 q-90 0 -135.5 -62.5t-45.5 -156.5q0 -84 40 -132t198 -142q147 -88 215 -169t68 -226q0 -170 -89.5 -277.5t-255.5 -107.5q-315 -1 -350 376z" />
<glyph unicode="T" d="M254 1243v123h721v-123h-289v-1243h-137v1243h-295z" />
<glyph unicode="U" d="M281 326v1040h137v-993q0 -121 40 -191.5t156.5 -70.5t157.5 71.5t41 190.5v993h137v-1034q0 -160 -92 -255t-244 -95q-154 0 -243.5 95t-89.5 249z" />
<glyph unicode="V" d="M193 1364l139 29l282 -1022l283 1022l139 -29l-405 -1391h-33z" />
<glyph unicode="W" d="M188 1366l138 27l65 -1026h4l199 718h41l199 -718h4l65 1026l137 -27l-137 -1393h-59l-228 826h-4l-227 -826h-59z" />
<glyph unicode="X" d="M190 31l357 712l-293 586l127 64l233 -510l234 510l127 -64l-293 -586l356 -712l-123 -58l-299 625l-303 -625z" />
<glyph unicode="Y" d="M193 1341l126 52l295 -695l295 695l127 -52l-354 -802v-539h-137v539z" />
<glyph unicode="Z" d="M213 0l580 1243h-521v123h727l-577 -1243h594v-123h-803z" />
<glyph unicode="[" d="M365 -78v1462h553v-122h-416v-1217h416v-123h-553z" />
<glyph unicode="\" d="M264 1530h94l607 -1585h-95z" />
<glyph unicode="]" d="M311 45h416v1217h-416v122h553v-1462h-553v123z" />
<glyph unicode="^" d="M225 731l336 662h107l329 -662h-102l-281 563l-286 -563h-103z" />
<glyph unicode="_" d="M0 -147h1229v-74h-1229v74z" />
<glyph unicode="`" d="M410 1294l73 129l363 -206l-53 -91z" />
<glyph unicode="a" d="M190 23l336 1044h176l336 -1044l-135 -50l-98 318h-379l-100 -318zM463 414h303l-152 493z" />
<glyph unicode="b" d="M250 0v123h110v821h-110v123h336q387 0 387 -285q0 -154 -121 -219q86 -27 134 -96.5t48 -161.5q0 -145 -91 -225t-259 -80h-434zM498 123h159q106 0 170 36t64 136q0 84 -53.5 138t-147.5 54h-192v-364zM498 610h153q86 0 132 48.5t46 123.5q0 162 -186 162h-145v-334z " />
<glyph unicode="c" d="M233 532q0 152 37 264.5t98.5 173t127 88t135.5 27.5q119 0 197.5 -57t140.5 -170l-125 -63q-84 162 -211 161q-76 0 -129 -41t-79 -109.5t-37 -135t-11 -135.5q0 -72 10 -137.5t36 -135t79 -110.5t131 -41q86 0 140 43t112 129l112 -78q-141 -223 -354 -223 q-113 0 -194.5 48t-127 130t-67 174t-21.5 198z" />
<glyph unicode="d" d="M244 0v123h110v821h-110v123h356q233 0 336.5 -115.5t103.5 -404.5q0 -109 -9 -185.5t-35.5 -149.5t-75 -117t-128 -69.5t-192.5 -25.5h-356zM492 123h145q137 0 198.5 92t61.5 317q0 233 -64.5 322.5t-199.5 89.5h-141v-821z" />
<glyph unicode="e" d="M322 0v1067h665v-123h-528v-319h436v-123h-436v-379h528v-123h-665z" />
<glyph unicode="f" d="M360 0v1067h672v-123h-534v-319h448v-123h-448v-502h-138z" />
<glyph unicode="g" d="M244 535q0 104 20.5 196t64.5 174t125 131t189 49q104 0 194.5 -55t147.5 -149l-117 -76q-90 152 -233 151q-74 0 -127 -42t-76.5 -111.5t-34 -135t-10.5 -137t10.5 -137t35 -133t77.5 -108.5t129 -41q111 0 199 55v280h-256v123h393v-471q-66 -53 -156 -84.5t-172 -31.5 q-113 0 -194.5 48t-125.5 131t-63.5 175.5t-19.5 198.5z" />
<glyph unicode="h" d="M266 0v1067h137v-442h422v442h138v-1067h-138v502h-422v-502h-137z" />
<glyph unicode="i" d="M395 0v123h150v821h-150v123h439v-123h-152v-821h152v-123h-439z" />
<glyph unicode="j" d="M223 397h137q-1 -18 0 -35q0 -128 40 -186q46 -66 153 -65q102 0 154.5 56t52.5 157v743h137v-770q0 -127 -89 -221t-255 -94q-172 0 -251 100t-79 315z" />
<glyph unicode="k" d="M332 0v1067h137v-455h51l367 482l104 -82l-354 -449l416 -502l-105 -88l-432 527h-47v-500h-137z" />
<glyph unicode="l" d="M348 0v1067h137v-944h559v-123h-696z" />
<glyph unicode="m" d="M199 0l43 1067h180l192 -463l193 463h180l43 -1067h-145l-27 864h-4l-240 -563l-239 563h-4l-27 -864h-145z" />
<glyph unicode="n" d="M258 0v1067h170l414 -899l4 4l-12 277v618h137v-1067h-170l-414 899l-4 -4l12 -279v-616h-137z" />
<glyph unicode="o" d="M236 532q0 152 33.5 264.5t90 173t120 88t134.5 27.5q70 0 132.5 -27.5t120 -87t92 -172t34.5 -266.5q0 -31 -1 -58.5t-9 -86.5t-21.5 -108.5t-42 -106.5t-66.5 -97t-100.5 -66.5t-138.5 -26.5q-55 0 -105 15t-101.5 55t-88 100.5t-60 158.5t-23.5 221zM379 532 q0 -70 8 -133t30.5 -133.5t73 -112.5t124 -42t123.5 42t73 112.5t31 134t8 132.5q0 72 -8 135.5t-31 134t-73 112.5t-123.5 42t-124 -42t-73 -112.5t-30.5 -134t-8 -135.5z" />
<glyph unicode="p" d="M332 0v1067h332q174 0 259 -82t85 -209q0 -158 -92.5 -237.5t-217.5 -79.5h-229v-459h-137zM469 582h188q207 0 207 184q0 178 -207 178h-188v-362z" />
<glyph unicode="q" d="M236 532q0 285 108.5 419t269.5 134q70 0 132.5 -27.5t120 -87t92 -172t34.5 -266.5q0 -256 -90 -389l121 -110l-86 -92l-119 108q-90 -68 -205 -67q-70 0 -132 27.5t-119.5 86t-92 170.5t-34.5 266zM379 532q0 -70 8 -133t30.5 -133.5t73 -112.5t123.5 -42q55 0 107 28 l-178 162l84 94l172 -157q51 121 51 294q0 72 -8 135.5t-31 134t-73 112.5t-123.5 42t-124 -42t-73 -112.5t-30.5 -134t-8 -135.5z" />
<glyph unicode="r" d="M305 0v1067h363q143 0 231 -71.5t88 -219.5q0 -100 -60.5 -185t-156.5 -114l262 -432l-119 -72l-272 484h-199v-457h-137zM442 580h181q100 0 160.5 53t60.5 143q0 76 -46 122t-134 46h-222v-364z" />
<glyph unicode="s" d="M268 299l123 39q47 -227 234 -227q88 0 144 47t56 133q0 18 -4 35.5t-8 32t-14.5 27.5t-18.5 21.5t-24.5 19.5t-24.5 16.5t-28.5 15.5t-28.5 13t-32 13.5t-32 12.5q-10 4 -50 20.5t-52 22.5t-45 21.5t-44 25.5t-35 27.5t-33 35t-22.5 42t-17.5 52t-4 60.5q0 131 91 205.5 t223 74.5q256 0 325 -268l-131 -39q-41 178 -197 178q-72 0 -123 -36.5t-51 -104.5q0 -37 9.5 -62.5t33 -45t43 -29.5t58.5 -29l227 -100q147 -82 148 -250q0 -150 -93.5 -233.5t-244.5 -83.5q-145 0 -238.5 86t-118.5 231z" />
<glyph unicode="t" d="M254 944v123h721v-123h-289v-944h-137v944h-295z" />
<glyph unicode="u" d="M281 283v784h137v-727q0 -121 42 -175t144 -54q123 0 166 53t43 176v727h137v-793q0 -119 -86 -205.5t-249.5 -86.5t-248.5 87t-85 214z" />
<glyph unicode="v" d="M193 1044l131 50l290 -783l291 783l131 -50l-409 -1071h-25z" />
<glyph unicode="w" d="M190 1077l142 17l82 -750h4l178 524h37l178 -524h4l84 750l139 -17l-153 -1104h-47l-224 658l-223 -658h-47z" />
<glyph unicode="x" d="M207 43l330 522l-301 457l124 72l254 -406l254 406l125 -72l-301 -457l330 -522l-123 -70l-285 471l-284 -471z" />
<glyph unicode="y" d="M201 1026l129 68l284 -549l285 549l129 -68l-346 -614v-412h-137v412z" />
<glyph unicode="z" d="M213 0l559 944h-500v123h727l-555 -944h572v-123h-803z" />
<glyph unicode="{" d="M309 623q29 10 77 23t64.5 19.5t39 26t28.5 51t6 84.5v273q0 156 69 220t236 64h115v-51h-49q-143 0 -188 -44t-45 -161v-286q0 -43 -2.5 -67.5t-10.5 -56.5t-28.5 -54.5t-53.5 -40.5q61 -33 78 -81t17 -134v-287q0 -117 48 -162t187 -45h47v-51h-67q-207 0 -280 62.5 t-73 224.5v270q0 55 -6 88t-28.5 51.5t-38 24.5t-63.5 17.5t-79 21.5z" />
<glyph unicode="|" d="M569 -590v2212h90v-2212h-90z" />
<glyph unicode="}" d="M285 -86h49q143 0 188 44t45 161v287q0 43 2 67.5t10.5 56t29 54t53.5 41.5q-61 33 -78 81t-17 134v286q0 117 -48 162t-187 45h-47v51h67q207 0 280 -62t73 -224v-271q0 -55 6 -87.5t28.5 -51t38 -25t63.5 -17.5t79 -21q-29 -10 -77 -23.5t-64.5 -20t-39 -25.5 t-28.5 -51t-6 -85v-273q0 -156 -69 -220t-237 -64h-114v51z" />
<glyph unicode="~" d="M61 618q139 248 297 248q90 0 269.5 -76.5t230.5 -76.5q74 0 140.5 57t103.5 133l65 -47q-51 -96 -132 -164.5t-175 -68.5q-61 0 -250.5 76.5t-240.5 76.5q-55 0 -103.5 -32.5t-71 -62.5t-59.5 -93q-6 -10 -10 -17z" />
<glyph unicode="&#xa0;" />
<glyph unicode="&#xa1;" d="M500 0l37 942h131l41 -942h-209zM510 1063v303h188v-303h-188z" />
<glyph unicode="&#xa2;" d="M233 688q0 92 15.5 176t51.5 163t102.5 134.5t156.5 73.5v149h137v-147q86 -10 157 -72.5t116 -148.5l-125 -66q-61 119 -148 152v-830q100 25 189 166l112 -78q-127 -201 -301 -221v-157h-137v161q-90 18 -156.5 73.5t-102.5 134.5t-51.5 162t-15.5 175zM377 690 q0 -346 182 -411v821q-182 -70 -182 -410z" />
<glyph unicode="&#xa3;" d="M164 705v122h182q-47 154 -47 228q0 141 105.5 235t248.5 94q123 0 219.5 -63.5t141.5 -173.5l-125 -45q-76 160 -227 160q-98 0 -159 -60.5t-61 -161.5q0 -68 41 -213h377v-122h-340q4 -18 15.5 -60.5t18.5 -67t12 -60.5t5 -64q0 -51 -17 -105.5t-30.5 -80t-52.5 -95.5 q70 16 135 16q63 0 142 -38q86 -41 102 -41q12 0 22.5 2t21.5 7t18.5 9t19.5 13l16 13q4 3 17.5 15t15.5 14l82 -90q-57 -55 -103.5 -82.5t-107.5 -27.5q-55 0 -133 38q-86 39 -146 39q-88 0 -231 -77l-74 96q92 154 126 229.5t34 134.5q0 88 -47 263h-217z" />
<glyph unicode="&#xa4;" d="M23 219l223 219q-102 139 -102.5 299t102.5 299l-223 219l67 66l221 -219q131 106 303 106t304 -106l221 219l67 -66l-223 -219q102 -139 102 -298.5t-102 -299.5l223 -219l-67 -65l-221 219q-131 -106 -303.5 -106.5t-303.5 106.5l-221 -219zM223 737q0 -166 113 -278.5 t278.5 -112.5t278.5 112.5t113 278.5t-113 279.5t-278.5 113.5t-278.5 -113.5t-113 -279.5z" />
<glyph unicode="&#xa5;" d="M193 1341l126 52l295 -695l295 695l127 -52l-303 -671h250v-123h-301v-547h-137v547h-299v123h250z" />
<glyph unicode="&#xa6;" d="M569 147h90v-737h-90v737zM569 885v737h90v-737h-90z" />
<glyph unicode="&#xa7;" d="M274 250l138 47q27 -86 85 -139.5t146 -53.5q70 0 119 38t49 106q0 18 -4 33.5t-9 26.5t-16.5 24.5t-18.5 19.5t-25.5 17.5t-24.5 15.5t-27.5 15.5t-28.5 13.5l-98 51q-6 4 -40 20.5t-42 21.5t-35.5 21.5t-38 25.5t-31 26.5t-27.5 32t-18.5 35t-15.5 43t-4 48.5 q0 127 105 199q-86 74 -86 186q0 117 92 188.5t211 71.5q100 0 184 -58t123 -152l-121 -54q-61 141 -190 142q-68 0 -112 -38t-44 -104q0 -23 8 -41t17.5 -30.5t32 -27.5t32.5 -20.5t38 -19.5t34 -16l90 -45q59 -31 84.5 -45.5t69 -47t60.5 -71.5t17 -88q0 -123 -110 -207 q113 -86 112 -201q0 -127 -96 -202.5t-227 -75.5q-127 0 -225.5 72.5t-131.5 195.5zM451 743q0 -70 81 -112l209 -111q68 51 68 133q0 29 -12.5 53.5t-41 45t-45 28.5t-51.5 27l-145 74q-63 -60 -63 -138z" />
<glyph unicode="&#xa8;" d="M328 1263.5q0 49.5 25.5 89.5t72.5 40t72.5 -40t25.5 -89.5t-25.5 -89t-72.5 -39.5t-72.5 39.5t-25.5 89zM705 1263.5q0 49.5 25.5 89.5t72.5 40t72.5 -40t25.5 -89.5t-25.5 -89t-72.5 -39.5t-72.5 39.5t-25.5 89z" />
<glyph unicode="&#xa9;" d="M6 684q0 291 178 495.5t432 204.5t430.5 -203.5t176.5 -496.5t-176.5 -497.5t-430.5 -204.5t-432 205.5t-178 496.5zM109 684q0 -244 151.5 -422t355.5 -178q84 0 172.5 43t163 117.5t121.5 190.5t47 249q0 238 -149.5 418t-354.5 180q-199 0 -353 -165t-154 -433z M305 690q0 176 91 290t243 114q111 0 187.5 -71t93.5 -194h-103q-25 162 -176 162q-115 0 -174 -81t-59 -218q0 -131 61 -219t174 -88q156 0 174 172h103q-12 -121 -91 -197.5t-186 -76.5q-147 0 -242.5 116.5t-95.5 290.5z" />
<glyph unicode="&#xaa;" d="M287 483v113h655v-113h-655zM315 733l228 633h143l227 -633l-129 -41l-65 185h-209l-66 -185zM547 989h135l-68 199z" />
<glyph unicode="&#xab;" d="M80 676l520 491l96 -100l-420 -391l420 -393l-96 -103zM539 676l520 491l96 -100l-420 -391l420 -393l-96 -103z" />
<glyph unicode="&#xac;" d="M70 829v91h1089v-566h-90v475h-999z" />
<glyph unicode="&#xad;" d="M387 469v129h455v-129h-455z" />
<glyph unicode="&#xae;" d="M0 680q0 289 180 492.5t436 203.5q254 0 433.5 -203.5t179.5 -492.5q0 -291 -179.5 -494.5t-433.5 -203.5q-256 0 -436 203.5t-180 494.5zM102 680q0 -244 152 -420t362 -176q203 0 356.5 171t153.5 425q0 252 -159.5 423t-350.5 171q-197 0 -355.5 -170t-158.5 -424z M389 289v780h297q242 0 242 -207q0 -205 -213 -213l207 -360h-121l-195 360h-114v-360h-103zM492 752h186q147 0 147 114q0 63 -38.5 82t-118.5 19h-176v-215z" />
<glyph unicode="&#xaf;" d="M322 1200v123h587v-123h-587z" />
<glyph unicode="&#xb0;" d="M219 1124.5q0 163.5 116 279.5t279.5 116t279.5 -116t116 -279.5t-116 -279.5t-279.5 -116t-279.5 116t-116 279.5zM305 1124q0 -127 91 -218t218 -91t218.5 91t91.5 218t-91.5 218.5t-218.5 91.5t-218 -91.5t-91 -218.5z" />
<glyph unicode="&#xb1;" d="M70 96v90h1089v-90h-1089zM70 788v91h499v499h90v-499h500v-91h-500v-499h-90v499h-499z" />
<glyph unicode="&#xb2;" d="M385 1163q12 104 73.5 162.5t166.5 58.5q92 0 155.5 -49t63.5 -137q0 -80 -92 -184l-205 -232h295v-102h-455v86l270 311q2 4 17.5 20.5t19.5 22.5t12.5 20.5t11.5 27t3 26.5q0 41 -26.5 64.5t-67.5 23.5q-111 0 -125 -133z" />
<glyph unicode="&#xb3;" d="M383 1282v102h453v-86l-177 -161q78 -8 133.5 -57.5t55.5 -125.5q0 -39 -18.5 -83t-62.5 -93t-141.5 -77.5t-232.5 -20.5v102q332 -4 332 170q0 94 -143 95q-35 0 -109 -13v80l189 168h-279z" />
<glyph unicode="&#xb4;" d="M410 1217l362 206l74 -129l-383 -168z" />
<glyph unicode="&#xb5;" d="M270 -432v1499h138v-705q0 -72 22.5 -125t57 -78.5t65.5 -36.5t55 -11q106 0 160.5 91t54.5 204v661h138v-1067h-138v90q-78 -109 -205 -108q-133 0 -210 100v-514h-138z" />
<glyph unicode="&#xb6;" d="M117 985q0 47 6 90t35.5 103.5t79 102.5t145.5 72.5t225 30.5h504v-122h-94v-1399h-137v1399h-174v-1399h-138v729q-186 -14 -319 96.5t-133 296.5z" />
<glyph unicode="&#xb7;" d="M512 737q0 43 29.5 73t72.5 30t73 -30t30 -73t-30 -72.5t-73 -29.5t-72.5 29.5t-29.5 72.5z" />
<glyph unicode="&#xb8;" d="M436 -330l41 105q86 -41 152 -41q63 0 63 41q0 18 -13 31.5t-38 19.5t-43 9t-47 4t-33 1l68 187h123l-37 -113q70 -4 117 -41t47 -104q0 -70 -59.5 -114t-131.5 -44q-78 0 -209 59z" />
<glyph unicode="&#xb9;" d="M412 1296l286 97v-611h119v-102h-393v102h151v465l-126 -43z" />
<glyph unicode="&#xba;" d="M287 483v113h655v-113h-655zM350 1047q0 143 64.5 240t200 97t201 -98t65.5 -239.5t-65.5 -238.5t-201 -97t-200 97.5t-64.5 238.5zM487 1047q0 -223 127 -224q129 0 129 224q0 225 -129 225q-127 0 -127 -225z" />
<glyph unicode="&#xbb;" d="M74 283l420 393l-420 391l96 100l520 -491l-520 -496zM532 283l420 393l-420 391l97 100l520 -491l-520 -496z" />
<glyph unicode="&#xbc;" d="M74 1296l286 97v-611h119v-102h-393v102h152v465l-127 -43zM170 27l772 1366l109 -60l-772 -1360zM682 160l119 547l117 -21l-95 -424h152v332h123v-332h57v-102h-57v-160h-123v160h-293z" />
<glyph unicode="&#xbd;" d="M88 1296l287 97v-611h119v-102h-394v102h152v465l-127 -43zM178 27l772 1366l109 -60l-772 -1360zM682 483q12 104 73.5 163t166.5 59q92 0 155.5 -49.5t63.5 -137.5q0 -80 -92 -184l-205 -232h295v-102h-455v86l270 311q2 4 17.5 20.5t19.5 22.5t12.5 20.5t11.5 27 t3 26.5q0 41 -26.5 64.5t-67.5 23.5q-111 0 -125 -133z" />
<glyph unicode="&#xbe;" d="M74 1282v102h452v-86l-176 -161q78 -8 133.5 -57.5t55.5 -125.5q0 -31 -9.5 -63.5t-40 -74.5t-77.5 -72.5t-133 -49t-195 -12.5v102q332 -4 332 168q0 94 -144 95q-35 0 -108 -13v80l188 168h-278zM172 27l772 1366l109 -60l-772 -1360zM684 160l119 547l117 -21 l-95 -424h152v332h123v-332h57v-102h-57v-160h-123v160h-293z" />
<glyph unicode="&#xbf;" d="M242 328q0 109 51 186.5t151 163.5q70 61 88.5 93t18.5 116v28h141v-34q0 -111 -21.5 -158t-107.5 -121q-63 -55 -88.5 -78.5t-57.5 -79t-32 -112.5q0 -98 54.5 -159.5t152.5 -61.5q113 0 176 79.5t84 202.5l135 -35q-74 -377 -391 -376q-160 0 -257 94t-97 252z M526 1063v303h189v-303h-189z" />
<glyph unicode="&#xc0;" d="M186 10l346 1356h164l346 -1356l-135 -37l-106 449h-373l-106 -449zM410 1593l73 129l363 -206l-53 -91zM461 545h307l-152 639h-4z" />
<glyph unicode="&#xc1;" d="M186 10l346 1356h164l346 -1356l-135 -37l-106 449h-373l-106 -449zM410 1516l362 206l74 -129l-383 -168zM461 545h307l-152 639h-4z" />
<glyph unicode="&#xc2;" d="M186 10l346 1356h164l346 -1356l-135 -37l-106 449h-373l-106 -449zM305 1501l309 209l310 -209l-47 -74l-263 127l-260 -127zM461 545h307l-152 639h-4z" />
<glyph unicode="&#xc3;" d="M186 10l346 1356h164l346 -1356l-135 -37l-106 449h-373l-106 -449zM299 1473q25 63 42 100t59 73.5t98 36.5q53 0 135 -61q74 -57 106 -57q12 0 22.5 4t17.5 14t13.5 18.5t12.5 23.5t8 23.5t6 24t6 19.5l105 -33q-12 -47 -23.5 -76t-33 -65.5t-53.5 -55t-75 -18.5 q-66 0 -147 63q-66 53 -100 54q-18 0 -31.5 -8.5t-25 -25t-16.5 -28.5t-14.5 -35.5t-11.5 -29.5zM461 545h307l-152 639h-4z" />
<glyph unicode="&#xc4;" d="M186 10l346 1356h164l346 -1356l-135 -37l-106 449h-373l-106 -449zM328 1562.5q0 49.5 25.5 89.5t72.5 40t72.5 -40t25.5 -89.5t-25.5 -89t-72.5 -39.5t-72.5 39.5t-25.5 89zM461 545h307l-152 639h-4zM705 1562.5q0 49.5 25.5 89.5t72.5 40t72.5 -40t25.5 -89.5 t-25.5 -89t-72.5 -39.5t-72.5 39.5t-25.5 89z" />
<glyph unicode="&#xc5;" d="M186 10l346 1356h164l346 -1356l-135 -37l-106 449h-373l-106 -449zM436 1559q0 72 52.5 124t126 52t126 -52.5t52.5 -123.5q0 -74 -52.5 -126.5t-126 -52.5t-126 52.5t-52.5 126.5zM461 545h307l-152 639h-4zM518 1558.5q0 -38.5 27.5 -67.5t68.5 -29t69 29t28 67.5 t-29 66.5t-68 28t-67.5 -28t-28.5 -66.5z" />
<glyph unicode="&#xc6;" d="M88 10l344 1356h608v-123h-321v-450h297v-123h-297v-547h321v-123h-458v422h-246l-109 -449zM362 545h220v698h-56z" />
<glyph unicode="&#xc7;" d="M233 682q0 94 8.5 179t34 184.5t68.5 171t120 119.5t179 48q213 0 334 -221l-117 -69q-82 162 -217 161q-266 0 -266 -573q0 -571 266 -571q137 0 242 172l112 -78q-121 -193 -303 -219l-22 -72q70 -4 117 -41t47 -104q0 -70 -59.5 -114t-131.5 -44q-78 0 -209 59l41 105 q86 -41 152 -41q63 0 63 41q0 18 -13 31.5t-38 19.5t-43 9t-47 4t-33 1l53 148q-84 14 -147.5 68.5t-98 125t-57 163.5t-29 172t-6.5 165z" />
<glyph unicode="&#xc8;" d="M322 0v1366h665v-123h-528v-450h436v-123h-436v-547h528v-123h-665zM410 1593l73 129l363 -206l-53 -91z" />
<glyph unicode="&#xc9;" d="M322 0v1366h665v-123h-528v-450h436v-123h-436v-547h528v-123h-665zM410 1516l362 206l74 -129l-383 -168z" />
<glyph unicode="&#xca;" d="M305 1501l309 209l310 -209l-47 -74l-263 127l-260 -127zM322 0v1366h665v-123h-528v-450h436v-123h-436v-547h528v-123h-665z" />
<glyph unicode="&#xcb;" d="M322 0v1366h665v-123h-528v-450h436v-123h-436v-547h528v-123h-665zM328 1562.5q0 49.5 25.5 89.5t72.5 40t72.5 -40t25.5 -89.5t-25.5 -89t-72.5 -39.5t-72.5 39.5t-25.5 89zM705 1562.5q0 49.5 25.5 89.5t72.5 40t72.5 -40t25.5 -89.5t-25.5 -89t-72.5 -39.5 t-72.5 39.5t-25.5 89z" />
<glyph unicode="&#xcc;" d="M360 0v123h185v1120h-185v123h508v-123h-186v-1120h186v-123h-508zM410 1593l73 129l363 -206l-53 -91z" />
<glyph unicode="&#xcd;" d="M360 0v123h185v1120h-185v123h508v-123h-186v-1120h186v-123h-508zM410 1516l362 206l74 -129l-383 -168z" />
<glyph unicode="&#xce;" d="M305 1501l309 209l310 -209l-47 -74l-263 127l-260 -127zM360 0v123h185v1120h-185v123h508v-123h-186v-1120h186v-123h-508z" />
<glyph unicode="&#xcf;" d="M328 1562.5q0 49.5 25.5 89.5t72.5 40t72.5 -40t25.5 -89.5t-25.5 -89t-72.5 -39.5t-72.5 39.5t-25.5 89zM360 0v123h185v1120h-185v123h508v-123h-186v-1120h186v-123h-508zM705 1562.5q0 49.5 25.5 89.5t72.5 40t72.5 -40t25.5 -89.5t-25.5 -89t-72.5 -39.5t-72.5 39.5 t-25.5 89z" />
<glyph unicode="&#xd0;" d="M244 0v123h110v498h-110v122h110v500h-110v123h360q111 0 185.5 -28.5t134 -101.5t88 -210t28.5 -344q0 -80 -2 -134t-11 -132t-25.5 -130.5t-48 -110.5t-77 -93t-114 -58.5t-154.5 -23.5h-364zM492 123h112q57 0 95 8t79 40t64.5 91.5t39 163.5t15.5 256 q0 150 -16.5 257.5t-40 165.5t-61.5 90t-68.5 40t-73.5 8h-145v-500h161v-122h-161v-498z" />
<glyph unicode="&#xd1;" d="M258 0v1366h172l406 -1149l4 4l-6 305v840h137v-1366h-172l-406 1151l-4 -4l6 -309v-838h-137zM299 1473q25 63 42 100t59 73.5t98 36.5q53 0 135 -61q74 -57 106 -57q12 0 22.5 4t17.5 14t13.5 18.5t12.5 23.5t8 23.5t6 24t6 19.5l105 -33q-12 -47 -23.5 -76t-33 -65.5 t-53.5 -55t-75 -18.5q-66 0 -147 63q-66 53 -100 54q-18 0 -31.5 -8.5t-25 -25t-16.5 -28.5t-14.5 -35.5t-11.5 -29.5z" />
<glyph unicode="&#xd2;" d="M236 611v73q0 74 3 132t13 148.5t36.5 157t65.5 130t105.5 98t154.5 34.5q80 0 142.5 -31.5t101.5 -73.5t66.5 -114.5t41 -127t19.5 -138.5t7 -117.5t1 -97.5q0 -61 -1 -95t-7 -118t-19.5 -138t-41 -127t-66.5 -117t-101.5 -75.5t-142.5 -31.5q-63 0 -115.5 19t-89 47 t-66.5 78t-47 89t-30.5 105.5t-18.5 101.5t-8 103.5t-3 85.5zM379 684q0 -297 49 -435t186 -138q43 0 78 13t59.5 44t42 60.5t27.5 81.5t16.5 87t9.5 98.5t3 94.5v94v18q0 86 -1 132.5t-7 123t-21.5 119.5t-40 89t-66.5 67.5t-100 21.5q-35 0 -64.5 -9t-52 -31.5t-41 -43 t-29.5 -60.5t-20.5 -64.5t-14.5 -75.5t-8 -74t-4 -78t-1 -68v-67zM410 1593l73 129l363 -206l-53 -91z" />
<glyph unicode="&#xd3;" d="M236 611v73q0 74 3 132t13 148.5t36.5 157t65.5 130t105.5 98t154.5 34.5q80 0 142.5 -31.5t101.5 -73.5t66.5 -114.5t41 -127t19.5 -138.5t7 -117.5t1 -97.5q0 -61 -1 -95t-7 -118t-19.5 -138t-41 -127t-66.5 -117t-101.5 -75.5t-142.5 -31.5q-63 0 -115.5 19t-89 47 t-66.5 78t-47 89t-30.5 105.5t-18.5 101.5t-8 103.5t-3 85.5zM379 684q0 -297 49 -435t186 -138q43 0 78 13t59.5 44t42 60.5t27.5 81.5t16.5 87t9.5 98.5t3 94.5v94v18q0 86 -1 132.5t-7 123t-21.5 119.5t-40 89t-66.5 67.5t-100 21.5q-35 0 -64.5 -9t-52 -31.5t-41 -43 t-29.5 -60.5t-20.5 -64.5t-14.5 -75.5t-8 -74t-4 -78t-1 -68v-67zM410 1516l362 206l74 -129l-383 -168z" />
<glyph unicode="&#xd4;" d="M236 611v73q0 74 3 132t13 148.5t36.5 157t65.5 130t105.5 98t154.5 34.5q80 0 142.5 -31.5t101.5 -73.5t66.5 -114.5t41 -127t19.5 -138.5t7 -117.5t1 -97.5q0 -61 -1 -95t-7 -118t-19.5 -138t-41 -127t-66.5 -117t-101.5 -75.5t-142.5 -31.5q-63 0 -115.5 19t-89 47 t-66.5 78t-47 89t-30.5 105.5t-18.5 101.5t-8 103.5t-3 85.5zM305 1501l309 209l310 -209l-47 -74l-263 127l-260 -127zM379 684q0 -297 49 -435t186 -138q43 0 78 13t59.5 44t42 60.5t27.5 81.5t16.5 87t9.5 98.5t3 94.5v94v18q0 86 -1 132.5t-7 123t-21.5 119.5t-40 89 t-66.5 67.5t-100 21.5q-35 0 -64.5 -9t-52 -31.5t-41 -43t-29.5 -60.5t-20.5 -64.5t-14.5 -75.5t-8 -74t-4 -78t-1 -68v-67z" />
<glyph unicode="&#xd5;" d="M236 611v73q0 74 3 132t13 148.5t36.5 157t65.5 130t105.5 98t154.5 34.5q80 0 142.5 -31.5t101.5 -73.5t66.5 -114.5t41 -127t19.5 -138.5t7 -117.5t1 -97.5q0 -61 -1 -95t-7 -118t-19.5 -138t-41 -127t-66.5 -117t-101.5 -75.5t-142.5 -31.5q-63 0 -115.5 19t-89 47 t-66.5 78t-47 89t-30.5 105.5t-18.5 101.5t-8 103.5t-3 85.5zM299 1473q25 63 42 100t59 73.5t98 36.5q53 0 135 -61q74 -57 106 -57q12 0 22.5 4t17.5 14t13.5 18.5t12.5 23.5t8 23.5t6 24t6 19.5l105 -33q-12 -47 -23.5 -76t-33 -65.5t-53.5 -55t-75 -18.5q-66 0 -147 63 q-66 53 -100 54q-18 0 -31.5 -8.5t-25 -25t-16.5 -28.5t-14.5 -35.5t-11.5 -29.5zM379 684q0 -297 49 -435t186 -138q43 0 78 13t59.5 44t42 60.5t27.5 81.5t16.5 87t9.5 98.5t3 94.5v94v18q0 86 -1 132.5t-7 123t-21.5 119.5t-40 89t-66.5 67.5t-100 21.5q-35 0 -64.5 -9 t-52 -31.5t-41 -43t-29.5 -60.5t-20.5 -64.5t-14.5 -75.5t-8 -74t-4 -78t-1 -68v-67z" />
<glyph unicode="&#xd6;" d="M236 611v73q0 74 3 132t13 148.5t36.5 157t65.5 130t105.5 98t154.5 34.5q80 0 142.5 -31.5t101.5 -73.5t66.5 -114.5t41 -127t19.5 -138.5t7 -117.5t1 -97.5q0 -61 -1 -95t-7 -118t-19.5 -138t-41 -127t-66.5 -117t-101.5 -75.5t-142.5 -31.5q-63 0 -115.5 19t-89 47 t-66.5 78t-47 89t-30.5 105.5t-18.5 101.5t-8 103.5t-3 85.5zM328 1562.5q0 49.5 25.5 89.5t72.5 40t72.5 -40t25.5 -89.5t-25.5 -89t-72.5 -39.5t-72.5 39.5t-25.5 89zM379 684q0 -297 49 -435t186 -138q43 0 78 13t59.5 44t42 60.5t27.5 81.5t16.5 87t9.5 98.5t3 94.5v94 v18q0 86 -1 132.5t-7 123t-21.5 119.5t-40 89t-66.5 67.5t-100 21.5q-35 0 -64.5 -9t-52 -31.5t-41 -43t-29.5 -60.5t-20.5 -64.5t-14.5 -75.5t-8 -74t-4 -78t-1 -68v-67zM705 1562.5q0 49.5 25.5 89.5t72.5 40t72.5 -40t25.5 -89.5t-25.5 -89t-72.5 -39.5t-72.5 39.5 t-25.5 89z" />
<glyph unicode="&#xd7;" d="M70 258l481 479l-481 482l63 63l481 -481l482 481l63 -63l-481 -482l481 -479l-63 -65l-482 481l-481 -481z" />
<glyph unicode="&#xd8;" d="M193 47l106 199q-49 168 -49 438v100q0 33 7 119t19.5 137.5t41 125t67.5 115.5t101.5 72.5t142.5 30.5q139 0 237 -102l66 119l106 -55l-98 -181q68 -170 68 -481q0 -76 -3.5 -136.5t-14.5 -150.5t-36.5 -155.5t-64.5 -129t-106.5 -97t-153.5 -33.5q-76 0 -147.5 36.5 t-116.5 96.5l-68 -121zM393 709q0 -197 10 -275l396 723q-57 98 -170 98q-41 0 -71 -9t-62.5 -43t-54 -91t-35 -159.5t-13.5 -243.5zM440 250q57 -139 189 -139q37 0 62.5 6t60 36.5t57 86t39 163t16.5 256.5q0 184 -16 334v4h-4l-404 -743v-4z" />
<glyph unicode="&#xd9;" d="M281 326v1040h137v-993q0 -121 40 -191.5t156.5 -70.5t157.5 71.5t41 190.5v993h137v-1034q0 -160 -92 -255t-244 -95q-154 0 -243.5 95t-89.5 249zM410 1593l73 129l363 -206l-53 -91z" />
<glyph unicode="&#xda;" d="M281 326v1040h137v-993q0 -121 40 -191.5t156.5 -70.5t157.5 71.5t41 190.5v993h137v-1034q0 -160 -92 -255t-244 -95q-154 0 -243.5 95t-89.5 249zM410 1516l362 206l74 -129l-383 -168z" />
<glyph unicode="&#xdb;" d="M281 326v1040h137v-993q0 -121 40 -191.5t156.5 -70.5t157.5 71.5t41 190.5v993h137v-1034q0 -160 -92 -255t-244 -95q-154 0 -243.5 95t-89.5 249zM305 1501l309 209l310 -209l-47 -74l-263 127l-260 -127z" />
<glyph unicode="&#xdc;" d="M281 326v1040h137v-993q0 -121 40 -191.5t156.5 -70.5t157.5 71.5t41 190.5v993h137v-1034q0 -160 -92 -255t-244 -95q-154 0 -243.5 95t-89.5 249zM328 1562.5q0 49.5 25.5 89.5t72.5 40t72.5 -40t25.5 -89.5t-25.5 -89t-72.5 -39.5t-72.5 39.5t-25.5 89zM705 1562.5 q0 49.5 25.5 89.5t72.5 40t72.5 -40t25.5 -89.5t-25.5 -89t-72.5 -39.5t-72.5 39.5t-25.5 89z" />
<glyph unicode="&#xdd;" d="M193 1341l126 52l295 -695l295 695l127 -52l-354 -802v-539h-137v539zM410 1516l362 206l74 -129l-383 -168z" />
<glyph unicode="&#xde;" d="M332 0v1366h137v-303h160q182 0 279.5 -94.5t97.5 -268.5q0 -184 -93.5 -289.5t-238.5 -105.5h-205v-305h-137zM469 428h193q94 0 147 71.5t53 200.5q0 240 -235 240h-158v-512z" />
<glyph unicode="&#xdf;" d="M299 0v858q0 76 75 151.5t210 75.5q117 0 188.5 -72.5t71.5 -189.5q0 -162 -113 -227q94 -25 146.5 -105.5t52.5 -181.5q0 -156 -85 -232.5t-192 -76.5h-125v123h95q164 0 163 180q0 211 -219 205v123q63 8 98 58t35 120q0 147 -131 147q-45 0 -73.5 -14t-41 -46 t-15.5 -59.5t-3 -74.5v-762h-137z" />
<glyph unicode="&#xe0;" d="M190 23l336 1044h176l336 -1044l-135 -50l-98 318h-379l-100 -318zM410 1294l73 129l363 -206l-53 -91zM463 414h303l-152 493z" />
<glyph unicode="&#xe1;" d="M190 23l336 1044h176l336 -1044l-135 -50l-98 318h-379l-100 -318zM410 1217l362 206l74 -129l-383 -168zM463 414h303l-152 493z" />
<glyph unicode="&#xe2;" d="M190 23l336 1044h176l336 -1044l-135 -50l-98 318h-379l-100 -318zM305 1202l309 209l310 -209l-47 -74l-263 127l-260 -127zM463 414h303l-152 493z" />
<glyph unicode="&#xe3;" d="M190 23l336 1044h176l336 -1044l-135 -50l-98 318h-379l-100 -318zM299 1174q25 63 42 100t59 73.5t98 36.5q53 0 135 -61q74 -57 106 -57q12 0 22.5 4t17.5 14t13.5 18.5t12.5 23.5t8 23.5t6 24t6 19.5l105 -33q-12 -47 -23.5 -76t-33 -65.5t-53.5 -55t-75 -18.5 q-66 0 -147 63q-66 53 -100 54q-18 0 -31.5 -8.5t-25 -25t-16.5 -28.5t-14.5 -35.5t-11.5 -29.5zM463 414h303l-152 493z" />
<glyph unicode="&#xe4;" d="M190 23l336 1044h176l336 -1044l-135 -50l-98 318h-379l-100 -318zM328 1263.5q0 49.5 25.5 89.5t72.5 40t72.5 -40t25.5 -89.5t-25.5 -89t-72.5 -39.5t-72.5 39.5t-25.5 89zM463 414h303l-152 493zM705 1263.5q0 49.5 25.5 89.5t72.5 40t72.5 -40t25.5 -89.5t-25.5 -89 t-72.5 -39.5t-72.5 39.5t-25.5 89z" />
<glyph unicode="&#xe5;" d="M190 23l336 1044h176l336 -1044l-135 -50l-98 318h-379l-100 -318zM436 1260q0 72 52.5 124t126 52t126 -52.5t52.5 -123.5q0 -74 -52.5 -126.5t-126 -52.5t-126 52.5t-52.5 126.5zM463 414h303l-152 493zM518 1259.5q0 -38.5 27.5 -67.5t68.5 -29t69 29t28 67.5 t-29 66.5t-68 28t-67.5 -28t-28.5 -66.5z" />
<glyph unicode="&#xe6;" d="M82 23l336 1044h680v-123h-365v-319h297v-123h-297v-379h365v-123h-502v291h-281l-98 -318zM354 414h242v530h-86z" />
<glyph unicode="&#xe7;" d="M233 532q0 152 37 264.5t98.5 173t127 88t135.5 27.5q119 0 197.5 -57t140.5 -170l-125 -63q-84 162 -211 161q-76 0 -129 -41t-79 -109.5t-37 -135t-11 -135.5q0 -72 10 -137.5t36 -135t79 -110.5t131 -41q86 0 140 43t112 129l112 -78q-123 -197 -303 -221l-22 -70 q70 -4 117 -41t47 -104q0 -70 -59.5 -114t-131.5 -44q-78 0 -209 59l41 105q86 -41 152 -41q63 0 63 41q0 18 -13 31.5t-38 19.5t-43 9t-47 4t-33 1l53 148q-176 29 -257 183t-81 361z" />
<glyph unicode="&#xe8;" d="M322 0v1067h665v-123h-528v-319h436v-123h-436v-379h528v-123h-665zM410 1294l73 129l363 -206l-53 -91z" />
<glyph unicode="&#xe9;" d="M322 0v1067h665v-123h-528v-319h436v-123h-436v-379h528v-123h-665zM410 1217l362 206l74 -129l-383 -168z" />
<glyph unicode="&#xea;" d="M305 1202l309 209l310 -209l-47 -74l-263 127l-260 -127zM322 0v1067h665v-123h-528v-319h436v-123h-436v-379h528v-123h-665z" />
<glyph unicode="&#xeb;" d="M322 0v1067h665v-123h-528v-319h436v-123h-436v-379h528v-123h-665zM328 1263.5q0 49.5 25.5 89.5t72.5 40t72.5 -40t25.5 -89.5t-25.5 -89t-72.5 -39.5t-72.5 39.5t-25.5 89zM705 1263.5q0 49.5 25.5 89.5t72.5 40t72.5 -40t25.5 -89.5t-25.5 -89t-72.5 -39.5 t-72.5 39.5t-25.5 89z" />
<glyph unicode="&#xec;" d="M395 0v123h150v821h-150v123h439v-123h-152v-821h152v-123h-439zM410 1294l73 129l363 -206l-53 -91z" />
<glyph unicode="&#xed;" d="M395 0v123h150v821h-150v123h439v-123h-152v-821h152v-123h-439zM410 1217l362 206l74 -129l-383 -168z" />
<glyph unicode="&#xee;" d="M305 1202l309 209l310 -209l-47 -74l-263 127l-260 -127zM395 0v123h150v821h-150v123h439v-123h-152v-821h152v-123h-439z" />
<glyph unicode="&#xef;" d="M328 1263.5q0 49.5 25.5 89.5t72.5 40t72.5 -40t25.5 -89.5t-25.5 -89t-72.5 -39.5t-72.5 39.5t-25.5 89zM395 0v123h150v821h-150v123h439v-123h-152v-821h152v-123h-439zM705 1263.5q0 49.5 25.5 89.5t72.5 40t72.5 -40t25.5 -89.5t-25.5 -89t-72.5 -39.5t-72.5 39.5 t-25.5 89z" />
<glyph unicode="&#xf0;" d="M244 0v123h110v348h-110v123h110v350h-110v123h356q233 0 336.5 -115.5t103.5 -404.5q0 -109 -9 -185.5t-35.5 -149.5t-75 -117t-128 -69.5t-192.5 -25.5h-356zM492 123h145q137 0 198.5 92t61.5 317q0 233 -64.5 322.5t-199.5 89.5h-141v-350h161v-123h-161v-348z" />
<glyph unicode="&#xf1;" d="M258 0v1067h170l414 -899l4 4l-12 277v618h137v-1067h-170l-414 899l-4 -4l12 -279v-616h-137zM299 1174q25 63 42 100t59 73.5t98 36.5q53 0 135 -61q74 -57 106 -57q12 0 22.5 4t17.5 14t13.5 18.5t12.5 23.5t8 23.5t6 24t6 19.5l105 -33q-12 -47 -23.5 -76t-33 -65.5 t-53.5 -55t-75 -18.5q-66 0 -147 63q-66 53 -100 54q-18 0 -31.5 -8.5t-25 -25t-16.5 -28.5t-14.5 -35.5t-11.5 -29.5z" />
<glyph unicode="&#xf2;" d="M236 532q0 152 33.5 264.5t90 173t120 88t134.5 27.5q70 0 132.5 -27.5t120 -87t92 -172t34.5 -266.5q0 -31 -1 -58.5t-9 -86.5t-21.5 -108.5t-42 -106.5t-66.5 -97t-100.5 -66.5t-138.5 -26.5q-55 0 -105 15t-101.5 55t-88 100.5t-60 158.5t-23.5 221zM379 532 q0 -70 8 -133t30.5 -133.5t73 -112.5t124 -42t123.5 42t73 112.5t31 134t8 132.5q0 72 -8 135.5t-31 134t-73 112.5t-123.5 42t-124 -42t-73 -112.5t-30.5 -134t-8 -135.5zM410 1294l73 129l363 -206l-53 -91z" />
<glyph unicode="&#xf3;" d="M236 532q0 152 33.5 264.5t90 173t120 88t134.5 27.5q70 0 132.5 -27.5t120 -87t92 -172t34.5 -266.5q0 -31 -1 -58.5t-9 -86.5t-21.5 -108.5t-42 -106.5t-66.5 -97t-100.5 -66.5t-138.5 -26.5q-55 0 -105 15t-101.5 55t-88 100.5t-60 158.5t-23.5 221zM379 532 q0 -70 8 -133t30.5 -133.5t73 -112.5t124 -42t123.5 42t73 112.5t31 134t8 132.5q0 72 -8 135.5t-31 134t-73 112.5t-123.5 42t-124 -42t-73 -112.5t-30.5 -134t-8 -135.5zM410 1217l362 206l74 -129l-383 -168z" />
<glyph unicode="&#xf4;" d="M236 532q0 152 33.5 264.5t90 173t120 88t134.5 27.5q70 0 132.5 -27.5t120 -87t92 -172t34.5 -266.5q0 -31 -1 -58.5t-9 -86.5t-21.5 -108.5t-42 -106.5t-66.5 -97t-100.5 -66.5t-138.5 -26.5q-55 0 -105 15t-101.5 55t-88 100.5t-60 158.5t-23.5 221zM305 1202l309 209 l310 -209l-47 -74l-263 127l-260 -127zM379 532q0 -70 8 -133t30.5 -133.5t73 -112.5t124 -42t123.5 42t73 112.5t31 134t8 132.5q0 72 -8 135.5t-31 134t-73 112.5t-123.5 42t-124 -42t-73 -112.5t-30.5 -134t-8 -135.5z" />
<glyph unicode="&#xf5;" d="M236 532q0 152 33.5 264.5t90 173t120 88t134.5 27.5q70 0 132.5 -27.5t120 -87t92 -172t34.5 -266.5q0 -31 -1 -58.5t-9 -86.5t-21.5 -108.5t-42 -106.5t-66.5 -97t-100.5 -66.5t-138.5 -26.5q-55 0 -105 15t-101.5 55t-88 100.5t-60 158.5t-23.5 221zM299 1174 q25 63 42 100t59 73.5t98 36.5q53 0 135 -61q74 -57 106 -57q12 0 22.5 4t17.5 14t13.5 18.5t12.5 23.5t8 23.5t6 24t6 19.5l105 -33q-12 -47 -23.5 -76t-33 -65.5t-53.5 -55t-75 -18.5q-66 0 -147 63q-66 53 -100 54q-18 0 -31.5 -8.5t-25 -25t-16.5 -28.5t-14.5 -35.5 t-11.5 -29.5zM379 532q0 -70 8 -133t30.5 -133.5t73 -112.5t124 -42t123.5 42t73 112.5t31 134t8 132.5q0 72 -8 135.5t-31 134t-73 112.5t-123.5 42t-124 -42t-73 -112.5t-30.5 -134t-8 -135.5z" />
<glyph unicode="&#xf6;" d="M236 532q0 152 33.5 264.5t90 173t120 88t134.5 27.5q70 0 132.5 -27.5t120 -87t92 -172t34.5 -266.5q0 -31 -1 -58.5t-9 -86.5t-21.5 -108.5t-42 -106.5t-66.5 -97t-100.5 -66.5t-138.5 -26.5q-55 0 -105 15t-101.5 55t-88 100.5t-60 158.5t-23.5 221zM328 1263.5 q0 49.5 25.5 89.5t72.5 40t72.5 -40t25.5 -89.5t-25.5 -89t-72.5 -39.5t-72.5 39.5t-25.5 89zM379 532q0 -70 8 -133t30.5 -133.5t73 -112.5t124 -42t123.5 42t73 112.5t31 134t8 132.5q0 72 -8 135.5t-31 134t-73 112.5t-123.5 42t-124 -42t-73 -112.5t-30.5 -134 t-8 -135.5zM705 1263.5q0 49.5 25.5 89.5t72.5 40t72.5 -40t25.5 -89.5t-25.5 -89t-72.5 -39.5t-72.5 39.5t-25.5 89z" />
<glyph unicode="&#xf7;" d="M70 692v90h1089v-90h-1089zM526 420q0 37 26 62.5t62.5 25.5t62 -25.5t25.5 -62.5t-25.5 -62.5t-62 -25.5t-62.5 25.5t-26 62.5zM526 1055q0 37 26 62.5t62.5 25.5t62 -25.5t25.5 -62.5t-25.5 -62.5t-62 -25.5t-62.5 25.5t-26 62.5z" />
<glyph unicode="&#xf8;" d="M236 532q0 285 108.5 419t269.5 134q115 0 197 -61l43 78l102 -58l-59 -112q96 -145 96 -400q0 -283 -108.5 -416.5t-270.5 -133.5q-117 0 -200 65l-43 -80l-105 56l64 116q-94 137 -94 393zM379 532q0 -137 31 -243l338 616q-51 51 -134 51q-74 0 -124 -42t-72.5 -112.5 t-30.5 -134t-8 -135.5zM477 164q59 -53 137 -53q74 0 124 42t73 112.5t31 134t8 132.5q0 145 -33 252z" />
<glyph unicode="&#xf9;" d="M281 283v784h137v-727q0 -121 42 -175t144 -54q123 0 166 53t43 176v727h137v-793q0 -119 -86 -205.5t-249.5 -86.5t-248.5 87t-85 214zM410 1294l73 129l363 -206l-53 -91z" />
<glyph unicode="&#xfa;" d="M281 283v784h137v-727q0 -121 42 -175t144 -54q123 0 166 53t43 176v727h137v-793q0 -119 -86 -205.5t-249.5 -86.5t-248.5 87t-85 214zM410 1217l362 206l74 -129l-383 -168z" />
<glyph unicode="&#xfb;" d="M281 283v784h137v-727q0 -121 42 -175t144 -54q123 0 166 53t43 176v727h137v-793q0 -119 -86 -205.5t-249.5 -86.5t-248.5 87t-85 214zM305 1202l309 209l310 -209l-47 -74l-263 127l-260 -127z" />
<glyph unicode="&#xfc;" d="M281 283v784h137v-727q0 -121 42 -175t144 -54q123 0 166 53t43 176v727h137v-793q0 -119 -86 -205.5t-249.5 -86.5t-248.5 87t-85 214zM328 1263.5q0 49.5 25.5 89.5t72.5 40t72.5 -40t25.5 -89.5t-25.5 -89t-72.5 -39.5t-72.5 39.5t-25.5 89zM705 1263.5 q0 49.5 25.5 89.5t72.5 40t72.5 -40t25.5 -89.5t-25.5 -89t-72.5 -39.5t-72.5 39.5t-25.5 89z" />
<glyph unicode="&#xfd;" d="M201 1026l129 68l284 -549l285 549l129 -68l-346 -614v-412h-137v412zM410 1217l362 206l74 -129l-383 -168z" />
<glyph unicode="&#xfe;" d="M332 0v1067h137v-229h195q174 0 259 -82t85 -209q0 -158 -92.5 -238t-217.5 -80h-229v-229h-137zM469 352h188q207 0 207 185q0 178 -207 178h-188v-363z" />
<glyph unicode="&#xff;" d="M201 1026l129 68l284 -549l285 549l129 -68l-346 -614v-412h-137v412zM328 1263.5q0 49.5 25.5 89.5t72.5 40t72.5 -40t25.5 -89.5t-25.5 -89t-72.5 -39.5t-72.5 39.5t-25.5 89zM705 1263.5q0 49.5 25.5 89.5t72.5 40t72.5 -40t25.5 -89.5t-25.5 -89t-72.5 -39.5 t-72.5 39.5t-25.5 89z" />
<glyph unicode="&#x152;" d="M141 672v14q0 698 381 698q84 0 123 -18h442v-123h-315v-450h291v-123h-291v-547h315v-123h-450q-18 -8 -51 -14q-33 -4 -54 -4q-393 0 -391 690zM285 686q0 -102 4 -175t18.5 -154t39 -131t69.5 -82.5t106 -32.5q63 0 113 39v1073q-37 33 -113 32q-55 0 -93 -19 t-74 -74.5t-53 -174.5t-17 -301z" />
<glyph unicode="&#x153;" d="M123 532q0 154 35 266.5t92 172t119.5 87t132.5 27.5q72 0 119 -18h487v-123h-365v-319h299v-123h-299v-379h365v-123h-487q-18 -8 -52 -14q-37 -4 -55 -4q-111 0 -190.5 49t-121.5 133t-60.5 174t-18.5 194zM266 532q0 -70 8.5 -133t31 -133.5t72.5 -112.5t124 -42 q57 0 104 28v789q-47 29 -104 28q-74 0 -124 -42t-72.5 -112.5t-31 -134t-8.5 -135.5z" />
<glyph unicode="&#x178;" d="M193 1341l126 52l295 -695l295 695l127 -52l-354 -802v-539h-137v539zM328 1562.5q0 49.5 25.5 89.5t72.5 40t72.5 -40t25.5 -89.5t-25.5 -89t-72.5 -39.5t-72.5 39.5t-25.5 89zM705 1562.5q0 49.5 25.5 89.5t72.5 40t72.5 -40t25.5 -89.5t-25.5 -89t-72.5 -39.5 t-72.5 39.5t-25.5 89z" />
<glyph unicode="&#x2c6;" d="M305 1202l309 209l310 -209l-47 -74l-263 127l-260 -127z" />
<glyph unicode="&#x2dc;" d="M299 1174q25 63 42 100t59 73.5t98 36.5q53 0 135 -61q74 -57 106 -57q12 0 22.5 4t17.5 14t13.5 18.5t12.5 23.5t8 23.5t6 24t6 19.5l105 -33q-12 -47 -23.5 -76t-33 -65.5t-53.5 -55t-75 -18.5q-66 0 -147 63q-66 53 -100 54q-18 0 -31.5 -8.5t-25 -25t-16.5 -28.5 t-14.5 -35.5t-11.5 -29.5z" />
<glyph unicode="&#x2000;" horiz-adv-x="866" />
<glyph unicode="&#x2001;" horiz-adv-x="1734" />
<glyph unicode="&#x2002;" horiz-adv-x="866" />
<glyph unicode="&#x2003;" horiz-adv-x="1734" />
<glyph unicode="&#x2004;" horiz-adv-x="577" />
<glyph unicode="&#x2005;" horiz-adv-x="432" />
<glyph unicode="&#x2006;" horiz-adv-x="288" />
<glyph unicode="&#x2007;" horiz-adv-x="288" />
<glyph unicode="&#x2008;" horiz-adv-x="215" />
<glyph unicode="&#x2009;" horiz-adv-x="346" />
<glyph unicode="&#x200a;" horiz-adv-x="96" />
<glyph unicode="&#x2010;" d="M387 469v129h455v-129h-455z" />
<glyph unicode="&#x2011;" d="M387 469v129h455v-129h-455z" />
<glyph unicode="&#x2012;" d="M387 469v129h455v-129h-455z" />
<glyph unicode="&#x2013;" d="M160 469v129h909v-129h-909z" />
<glyph unicode="&#x2014;" d="M0 469v129h1229v-129h-1229z" />
<glyph unicode="&#x2018;" d="M442 961v92q0 100 64.5 190t163.5 141l47 -112q-86 -55 -86 -187v-124h-189z" />
<glyph unicode="&#x2019;" d="M457 1055q86 55 86 186v125h188v-92q0 -100 -64.5 -190.5t-162.5 -141.5z" />
<glyph unicode="&#x201a;" d="M457 -8q86 55 86 186v125h188v-92q0 -100 -64.5 -190.5t-162.5 -141.5z" />
<glyph unicode="&#x201c;" d="M293 961v92q0 100 64.5 190t162.5 141l47 -112q-86 -55 -86 -187v-124h-188zM674 961v92q0 100 64.5 190t162.5 141l47 -112q-86 -55 -86 -187v-124h-188z" />
<glyph unicode="&#x201d;" d="M281 1055q86 55 86 186v125h188v-92q0 -100 -64.5 -190.5t-162.5 -141.5zM662 1055q86 55 86 186v125h188v-92q0 -100 -64.5 -190.5t-162.5 -141.5z" />
<glyph unicode="&#x201e;" d="M281 -8q86 55 86 186v125h188v-92q0 -100 -64.5 -190.5t-162.5 -141.5zM662 -8q86 55 86 186v125h188v-92q0 -100 -64.5 -190.5t-162.5 -141.5z" />
<glyph unicode="&#x2022;" d="M362 516q0 102 75 177t177.5 75t177 -75t74.5 -177q0 -104 -73.5 -178t-178.5 -74q-106 0 -179 73t-73 179z" />
<glyph unicode="&#x2026;" d="M111 0v303h188v-303h-188zM520 0v303h189v-303h-189zM930 0v303h188v-303h-188z" />
<glyph unicode="&#x202f;" horiz-adv-x="346" />
<glyph unicode="&#x2039;" d="M291 676l520 491l96 -100l-420 -391l420 -393l-96 -103z" />
<glyph unicode="&#x203a;" d="M322 283l419 393l-419 391l96 100l520 -491l-520 -496z" />
<glyph unicode="&#x205f;" horiz-adv-x="432" />
<glyph unicode="&#x20ac;" d="M57 500l43 108h101q-2 18 -2 78q0 55 2 74h-144l43 108h111q37 229 173 371.5t384 142.5q236 0 365 -108v-144q-133 125 -351 125q-188 0 -296.5 -108.5t-131.5 -278.5h680l-43 -108h-653q-4 -37 -4 -74t4 -78h594l-43 -108h-535q31 -186 140.5 -290t289.5 -104 q209 0 349 125v-145q-49 -41 -145.5 -71.5t-219.5 -30.5q-231 0 -373.5 130t-181.5 386h-156z" />
<glyph unicode="&#x2122;" d="M39 1303v81h469v-81h-193v-496h-82v496h-194zM578 807v577h139l166 -407l172 407h135v-577h-82v496h-4l-197 -496h-53l-190 496h-5v-496h-81z" />
<glyph unicode="&#xe000;" horiz-adv-x="1095" d="M0 1095h1095v-1095h-1095v1095z" />
<glyph unicode="&#xfb01;" d="M184 0v1067h922v-123h-150v-821h150v-123h-436v123h149v821h-497v-319h311v-123h-311v-502h-138z" />
<glyph unicode="&#xfb02;" d="M156 0v1067h725v-944h327v-123h-465v944h-450v-319h311v-123h-311v-502h-137z" />
<glyph unicode="&#xfb03;" horiz-adv-x="3686" d="M2853 0v123h150v821h-150v123h439v-123h-152v-821h152v-123h-439zM1589 0v1067h672v-123h-534v-319h448v-123h-448v-502h-138zM360 0v1067h672v-123h-534v-319h448v-123h-448v-502h-138z" />
<glyph unicode="&#xfb04;" horiz-adv-x="3686" d="M2806 0v1067h137v-944h559v-123h-696zM1589 0v1067h672v-123h-534v-319h448v-123h-448v-502h-138zM360 0v1067h672v-123h-534v-319h448v-123h-448v-502h-138z" />
</font>
</defs>
</svg>
